<?xml version="1.0" standalone="no"?>
<!DOCTYPE svg PUBLIC "-//W3C//DTD SVG 20010904//EN"
 "http://www.w3.org/TR/2001/REC-SVG-20010904/DTD/svg10.dtd">
<svg version="1.0" xmlns="http://www.w3.org/2000/svg"
 width="1068.000000pt" height="676.000000pt" viewBox="0 0 1068.000000 676.000000"
 preserveAspectRatio="xMidYMid meet">

<g transform="translate(0.000000,676.000000) scale(0.100000,-0.100000)"
fill="#047857" stroke="none">
<path d="M0 3380 l0 -3380 5340 0 5340 0 0 3380 0 3380 -5340 0 -5340 0 0
-3380z m5508 2230 c214 -35 444 -168 586 -338 256 -308 301 -677 137 -1119
-45 -119 -72 -175 -161 -333 -45 -80 -110 -194 -145 -255 -34 -60 -124 -220
-200 -355 -76 -135 -192 -339 -257 -455 -65 -115 -123 -210 -129 -210 -14 0
-46 56 -399 685 -152 272 -287 512 -298 532 -126 222 -205 404 -254 583 -25
92 -31 134 -35 261 -5 141 -3 159 21 255 75 294 269 535 535 664 65 32 218 80
276 88 64 8 263 6 323 -3z m-1608 -3710 c45 -124 90 -253 101 -287 11 -34 23
-64 27 -67 4 -2 50 116 102 262 51 147 99 281 106 297 l12 30 115 -3 116 -3
-14 -37 c-20 -54 -43 -112 -140 -352 -48 -118 -90 -226 -95 -240 -5 -14 -26
-68 -48 -120 l-38 -95 -111 -3 -111 -3 -15 43 c-9 24 -41 104 -72 178 -31 74
-67 164 -82 200 -14 36 -33 85 -43 110 -70 176 -120 306 -120 312 0 8 211 16
222 8 4 -3 43 -106 88 -230z m1206 203 c66 -35 101 -70 131 -130 56 -115 28
-243 -73 -332 -64 -56 -120 -71 -266 -71 l-118 0 0 -145 0 -145 -110 0 -110 0
0 423 c0 233 2 426 4 428 2 2 116 2 253 -1 231 -5 251 -6 289 -27z m688 10 c7
-16 28 -66 46 -113 18 -47 41 -103 50 -125 10 -22 33 -78 50 -125 18 -47 41
-103 50 -125 10 -22 33 -78 50 -125 18 -47 41 -104 52 -127 10 -24 23 -54 28
-68 l10 -25 -121 0 c-105 0 -120 2 -125 18 -4 9 -18 47 -32 85 l-25 67 -152 0
-151 0 -18 -52 c-10 -29 -23 -68 -30 -85 l-11 -33 -117 0 -117 0 9 28 c5 15
25 68 45 117 21 50 45 110 55 135 10 25 31 79 48 120 16 41 52 131 80 200 27
69 62 155 77 193 l27 67 104 0 c103 0 104 0 118 -27z m928 3 c62 -23 127 -82
158 -142 35 -68 35 -179 2 -244 -28 -53 -67 -96 -104 -116 -16 -8 -28 -19 -28
-25 0 -5 46 -72 103 -147 57 -75 106 -143 111 -149 6 -10 -22 -13 -126 -12
l-133 0 -65 89 c-36 49 -99 134 -140 190 l-75 100 -3 -190 -2 -190 -110 0
-110 0 0 423 c0 233 3 427 8 431 4 4 111 6 237 4 186 -4 239 -8 277 -22z m548
-171 l5 -190 23 38 c13 21 29 43 35 50 7 6 33 44 59 82 26 39 69 102 95 140
l48 70 120 3 c65 1 125 0 132 -2 10 -4 -4 -32 -48 -98 -34 -51 -65 -95 -69
-98 -10 -8 -160 -228 -160 -235 0 -4 30 -48 68 -98 37 -51 74 -102 82 -114 8
-12 42 -59 75 -105 34 -46 64 -89 69 -95 6 -10 -22 -13 -126 -13 l-133 0 -135
189 -135 190 -3 -190 -2 -189 -110 0 -110 0 0 423 c0 233 3 427 7 431 4 4 52
5 107 4 l101 -3 5 -190z m-3861 157 c169 -90 210 -292 87 -428 -24 -27 -65
-60 -92 -74 -44 -22 -64 -25 -186 -28 l-138 -4 0 -144 0 -144 -110 0 -110 0 0
426 0 425 253 -3 c242 -3 254 -4 296 -26z"/>
<path d="M5230 5361 c-278 -52 -497 -235 -586 -489 -13 -38 -29 -111 -36 -163
-10 -81 -9 -107 6 -189 40 -223 97 -357 317 -745 59 -104 175 -311 257 -458
l150 -268 30 53 c16 29 103 184 192 343 89 160 207 368 261 463 133 232 181
347 225 540 31 140 31 241 0 363 -66 255 -264 458 -516 529 -84 23 -232 33
-300 21z m38 -273 c-40 -56 -111 -141 -156 -188 l-84 -85 -13 32 c-18 41 -55
178 -55 201 0 25 108 90 197 117 46 14 173 34 181 29 2 -1 -29 -49 -70 -106z
m218 86 c101 -23 198 -77 282 -157 51 -50 54 -67 10 -67 -49 0 -177 -26 -249
-51 -67 -22 -256 -110 -299 -139 -14 -9 -45 -30 -70 -47 -25 -16 -50 -33 -57
-37 -12 -7 -63 79 -63 106 0 8 27 37 60 67 33 29 102 107 152 174 141 189 122
177 234 151z m-522 -250 c14 -50 28 -99 32 -108 10 -25 -109 -76 -179 -76 -30
0 -56 3 -59 6 -10 10 50 143 83 187 52 67 82 98 90 90 4 -5 18 -49 33 -99z
m915 -64 c50 -96 75 -219 65 -321 -9 -90 -10 -91 -69 -73 -279 86 -505 114
-630 80 -27 -7 -57 -15 -65 -17 -9 -3 -26 18 -46 56 l-33 60 82 53 c104 67
278 152 382 185 45 14 121 31 170 37 49 6 92 13 94 16 6 6 15 -9 50 -76z
m-837 -150 l26 -58 -56 -45 c-32 -25 -96 -84 -145 -131 -48 -47 -91 -86 -96
-86 -23 0 -47 194 -34 273 l8 48 70 3 c51 1 85 9 125 28 30 15 60 27 65 27 6
0 22 -26 37 -59z m73 -150 l29 -60 -37 -38 c-57 -58 -80 -122 -81 -222 0 -47
3 -107 8 -133 7 -47 7 -48 -13 -38 -67 36 -180 159 -217 236 l-24 50 58 59
c63 64 228 206 241 206 4 0 20 -27 36 -60z m510 -56 c161 -35 295 -77 295 -92
0 -21 -56 -134 -84 -172 -64 -84 -189 -190 -224 -190 -62 0 -377 326 -418 433
-22 58 214 69 431 21z m-440 -61 c89 -139 228 -292 338 -371 44 -32 48 -37 32
-48 -22 -16 -101 -34 -185 -41 -100 -8 -290 36 -290 68 0 6 -3 8 -7 6 -5 -3
-9 7 -10 21 -1 15 -5 70 -8 122 -6 84 -5 101 15 150 25 63 65 120 84 120 8 0
22 -12 31 -27z"/>
<path d="M4780 1850 l0 -80 108 0 c68 1 113 5 123 13 27 20 41 56 34 88 -11
49 -37 59 -157 59 l-108 0 0 -80z"/>
<path d="M5640 1772 c-18 -53 -35 -103 -38 -109 -3 -10 16 -13 76 -13 l80 0
-35 103 c-20 56 -39 105 -42 109 -4 4 -22 -36 -41 -90z"/>
<path d="M6420 1835 l0 -95 119 0 119 0 26 31 c36 43 35 91 -3 130 -29 29 -31
29 -145 29 l-116 0 0 -95z"/>
<path d="M3080 1850 l0 -80 110 0 c104 0 112 1 135 25 31 30 33 82 5 113 -19
20 -30 22 -135 22 l-115 0 0 -80z"/>
</g>
</svg>
